# xmcd CD database file
# Generated: Thu Dec 27 11:23:24 2001 by KSCD
# 
# Track frame offsets:
#       150
#       17283
#       33903
#       51867
#       68860
#       81872
#       97053
#       116962
#       135441
#       152069
#       169074
#       184854
#
# Disc length: 2811 seconds
#
# Revision: 2
# Processed by: cddbd v1.4PL0 Copyright (c) Steve Scherf et al.
# Submitted via: Kscd 1.3.0
#
DISCID=990af90c
DTITLE=Dan and Kev - The Magic Rider
DYEAR=1900
DGENRE=
TTITLE0=Little Pieces
TTITLE1=Elvis
TTITLE2=Helicopter Pilot
TTITLE3=I Wish My Baby Was Born
TTITLE4=The Magic Rider
TTITLE5=Murder Me
TTITLE6=Under Malaleuca
TTITLE7=The House That We Built
TTITLE8=Rain Lover
TTITLE9=Lost In The South
TTITLE10=These Shoes
TTITLE11=Ship In The Harbour
EXTD=
EXTT0=
EXTT1=
EXTT2=
EXTT3=
EXTT4=
EXTT5=
EXTT6=
EXTT7=
EXTT8=
EXTT9=
EXTT10=
EXTT11=
PLAYORDER=
